<svg width="42" height="42" viewBox="0 0 42 42" fill="none" xmlns="http://www.w3.org/2000/svg">
<path d="M0 21C0 9.40202 9.40202 0 21 0C32.598 0 42 9.40202 42 21C42 32.598 32.598 42 21 42C9.40202 42 0 32.598 0 21Z" fill="white"/>
<path fill-rule="evenodd" clip-rule="evenodd" d="M16.7398 10.9516C15.8367 10.0485 15.8367 8.58432 16.7398 7.68121C17.6429 6.77814 19.1071 6.77814 20.0102 7.68121L31.5727 19.2437C32.4757 20.1468 32.4757 21.611 31.5727 22.5141L20.0102 34.0766C19.1071 34.9796 17.6429 34.9796 16.7398 34.0766C15.8367 33.1735 15.8367 31.7093 16.7398 30.8062L26.6671 20.8789L16.7398 10.9516Z" fill="#8C8C8C"/>
</svg>
