<svg width="31" height="36" viewBox="0 0 31 36" fill="none" xmlns="http://www.w3.org/2000/svg">
<path d="M29.214 7.60849L17.7288 0.627958C16.3511 -0.209319 14.6482 -0.209319 13.2705 0.627958L1.78596 7.60849C1.41783 7.832 1.41991 8.38834 1.79011 8.60907L15.5 16.7839L29.2106 8.60907C29.5808 8.38834 29.5829 7.83269 29.214 7.60849ZM30.1717 10.6967L16.6071 18.7844V34.272C16.6071 35.1632 17.5337 35.7188 18.2713 35.2705L28.8002 28.8712C30.162 28.0436 31 26.5226 31 24.8785V11.1984C31 10.7549 30.5405 10.4767 30.1717 10.6967ZM0 11.1984V24.8785C0 26.5233 0.837969 28.0436 2.19975 28.8712L12.7287 35.2698C13.467 35.7182 14.3929 35.1632 14.3929 34.2713V18.7844L0.828281 10.6967C0.459464 10.4767 0 10.7549 0 11.1984Z" fill="white"/>
</svg>
