<svg width="31" height="32" viewBox="0 0 31 32" fill="none" xmlns="http://www.w3.org/2000/svg">
<path d="M30.5784 26.8061L24.5414 20.7691C24.269 20.4966 23.8996 20.3452 23.5121 20.3452H22.5251C24.1963 18.2078 25.1893 15.5193 25.1893 12.5947C25.1893 5.63733 19.552 0 12.5947 0C5.63733 0 0 5.63733 0 12.5947C0 19.552 5.63733 25.1893 12.5947 25.1893C15.5193 25.1893 18.2078 24.1963 20.3452 22.5251V23.5121C20.3452 23.8996 20.4966 24.269 20.7691 24.5414L26.8061 30.5784C27.3752 31.1476 28.2956 31.1476 28.8588 30.5784L30.5724 28.8648C31.1415 28.2956 31.1415 27.3752 30.5784 26.8061ZM12.5947 20.3452C8.31369 20.3452 4.8441 16.8817 4.8441 12.5947C4.8441 8.31369 8.30764 4.8441 12.5947 4.8441C16.8756 4.8441 20.3452 8.30764 20.3452 12.5947C20.3452 16.8756 16.8817 20.3452 12.5947 20.3452Z" fill="white"/>
</svg>
